<svg id="svg5" xmlns="http://www.w3.org/2000/svg" viewBox="0 0 307.9 493"><path id="path19846" d="M307.74,119.44H423.42a3.12,3.12,0,0,1,2.92,3.29v62.49a3.12,3.12,0,0,0,2.93,3.29h18.45a3.12,3.12,0,0,1,2.93,3.28V268.1a3.12,3.12,0,0,1-2.93,3.28H421.6a2.81,2.81,0,0,0-2.21,1.14l-40.78,53a2.8,2.8,0,0,1-2.22,1.14H354.77a2.8,2.8,0,0,1-2.22-1.14l-40.78-53a2.81,2.81,0,0,0-2.21-1.14H283.44a3.11,3.11,0,0,1-2.92-3.28V191.79a3.11,3.11,0,0,1,2.92-3.28h18.45a3.12,3.12,0,0,0,2.93-3.29V122.73A3.12,3.12,0,0,1,307.74,119.44Zm-2.92,100v21.06a3.12,3.12,0,0,0,2.92,3.29h14a2.79,2.79,0,0,1,2.21,1.13l39.45,51.24a2.71,2.71,0,0,0,4.42,0l39.45-51.24a2.79,2.79,0,0,1,2.21-1.13h14a3.12,3.12,0,0,0,2.92-3.29V219.41a3.12,3.12,0,0,0-2.92-3.28H405a3.12,3.12,0,0,1-2.92-3.28v-62.5a3.12,3.12,0,0,0-2.93-3.28H332.05a3.12,3.12,0,0,0-2.93,3.28v62.5a3.12,3.12,0,0,1-2.92,3.28H307.74A3.12,3.12,0,0,0,304.82,219.41Z" transform="translate(-142.74 -119.44)"/><g id="text1485"><path d="M265.45,500.63m2.53-.49a2.47,2.47,0,0,1-2.92-2.05L247.8,385.52c-.7-4.6-2.87-9.36-6.09-11.73-6-5.15-24.88-1.83-30,4.16q-4.63,4.57-8.84,16.77-15.06,44-36.53,121.43A1.61,1.61,0,0,1,165,517.3l-8.83,1.35c-9,1.47-12.6,16.59-11,24.81a7.57,7.57,0,0,0,9.19,6.74,1.59,1.59,0,0,1,1.77,2q-5.26,18.21-13,47.73-1.65,6.62,3.34,10.15t14.67,1.9c2.89-.44,5-1.21,6.31-2.3a9.43,9.43,0,0,0,3.06-5.21q7.91-29.19,15.84-58.23a1.56,1.56,0,0,1,1.29-1.15l53.88-8.27a1.6,1.6,0,0,1,1.81,1.33l7.7,50.27q1.47,9.55,16.82,7.2,5.5-.84,8.35-3.5c1.89-1.87,2.64-4.06,1.87-9.11l-7.62-49.64a2.45,2.45,0,0,1,2-2.78l13.1-2.15a1.76,1.76,0,0,1,2.11,1.47q3.8,26.58,11.73,72.92,1.23,6.54,6.56,7.95t14.11-2.62q7.59-3.49,6.21-11.4-5.85-33.54-12.34-74.1a3.28,3.28,0,0,1,4.38-3.58,28.42,28.42,0,0,1,5.59,2.81q38.28,24.32,70.64,47.32,6.72,4.8,11.78,2.48c5.24-1.78,10.94-15.12,8.25-19.93q-2.33-5.06-10.42-10.36-22.63-15.54-67.35-43.34c-3.08-1.59-3.92-4.56-2.43-8.07a1162.22,1162.22,0,0,0,41.23-133.63q1.62-7.68-.34-11.94-1.29-2.79-8.13-4-6.76-1.41-10.1.13-6,2.74-7.13,7.63c-15,55.86-25.86,94.27-38.64,127.7a2.54,2.54,0,0,1-4.84-.62q-6.49-39.91-12.68-90.75-.9-6.51-6.5-7.81-5.52-1.49-14.17,2.49-7.32,3.38-6.2,11.4c4,30,9.15,64.89,15.13,102.86a4,4,0,0,1-3.29,4.59Zm-33.15,6.45-34.61,5.31a3,3,0,0,1-3.34-3.73q12.83-48.06,24.89-82.24a2.29,2.29,0,0,1,4.43.43l11.67,76.09A3.64,3.64,0,0,1,234.83,506.59Z" transform="translate(-142.74 -119.44)"/></g></svg>